# xmcd
#
# Track frame offsets: 
#        150
#        18241
#        31669
#        49133
#        57153
#        70395
#        86575
#        101472
#        118707
#        134251
#        148396
#        165415
#        187026
#        202824
#
# Disc length: 2948 seconds
#
# Revision: 0
# Processed by: cddbd v1.5.2PL0 Copyright (c) Steve Scherf et al.
# Submitted via: ExactAudioCopy v1.3
#
DISCID=be0b820e
DTITLE=Pam Tillis and Lorrie Morgan - Dos Divas
DYEAR=2013
DGENRE=Country
TTITLE0=I Am A Woman
TTITLE1=I Know What You Did Last Night
TTITLE2=Dos Divas
TTITLE3=I'm Tired
TTITLE4=Last Night's Make Up
TTITLE5=Ain't Enough Roses
TTITLE6=Another Chance To
TTITLE7=Even The Stars
TTITLE8=That's So Cool
TTITLE9=Old Enough To Be Your Lover
TTITLE10=Next Time It Rains
TTITLE11=I Envy The Sun
TTITLE12=Bless Their Hearts
TTITLE13=What Was I Thinkin'
EXTD=
EXTT0=
EXTT1=
EXTT2=
EXTT3=
EXTT4=
EXTT5=
EXTT6=
EXTT7=
EXTT8=
EXTT9=
EXTT10=
EXTT11=
EXTT12=
EXTT13=
PLAYORDER=
